Coordinates
version=1
nRows=10
nColumns=40
inDegrees=yes

Units are S.I. units (second, meters, Newtons, ...)
Angles are in degrees.

endheader
time	pelvis_tilt	pelvis_list	pelvis_rotation	pelvis_tx	pelvis_ty	pelvis_tz	hip_flexion_r	hip_adduction_r	hip_rotation_r	knee_angle_r	knee_angle_r_beta	ankle_angle_r	subtalar_angle_r	mtp_angle_r	hip_flexion_l	hip_adduction_l	hip_rotation_l	knee_angle_l	knee_angle_l_beta	ankle_angle_l	subtalar_angle_l	mtp_angle_l	lumbar_extension	lumbar_bending	lumbar_rotation	arm_flex_r	arm_add_r	arm_rot_r	elbow_flex_r	pro_sup_r	wrist_flex_r	wrist_dev_r	arm_flex_l	arm_add_l	arm_rot_l	elbow_flex_l	pro_sup_l	wrist_flex_l	wrist_dev_l
     11.24342857	     -1.82219004	     -5.22273100	      6.20942108	      0.96994147	      0.90844256	      0.54496818	     15.78217595	      8.00813927	     -6.92350420	     31.16995350	     31.16995350	     19.16337509	    -15.19833180	      1.94307713	     33.19778508	    -13.07658961	      6.57532104	     64.77087610	     64.77087610	     15.34343988	    -19.50252227	     20.51735929	    -10.49962813	      4.03737105	      0.61628995	     28.97043189	    -15.17823471	    -11.17730860	     36.94927618	     46.37397084	      0.00000000	      0.00000000	     -2.63156710	     -6.38267632	      1.18348624	     21.25206160	     45.49192652	      0.00000000	      0.00000000
     11.26685714	     -2.00510849	     -5.10989855	      7.00471495	      0.96735060	      0.91033576	      0.54492652	     15.20219208	      7.81278268	     -7.61115870	     29.96767088	     29.96767088	     18.95512073	    -14.88101448	      2.06709459	     33.80521475	    -12.39269667	      6.61002939	     61.01286534	     61.01286534	     15.54983535	    -19.47000456	     20.51409564	    -10.38982076	      3.88219341	      0.80594656	     31.89605301	    -15.58167885	    -11.08007330	     39.26717772	     46.29187198	      0.00000000	      0.00000000	     -4.98316136	     -6.09229202	      2.06371652	     20.98612768	     45.23156898	      0.00000000	      0.00000000
     11.29028571	     -2.31437853	     -4.95100566	      7.83785039	      0.96445505	      0.91214956	      0.54446942	     14.74189096	      7.48433980	     -8.46611794	     28.68306552	     28.68306552	     18.23415610	    -14.64440126	      0.82427181	     34.21738258	    -11.57662307	      6.61287643	     56.54799890	     56.54799890	     14.64344421	    -19.38863485	     18.45239027	    -10.22369930	      3.72242931	      1.42284805	     33.76230191	    -17.17227626	     -8.52735673	     43.97946893	     45.89260134	      0.00000000	      0.00000000	     -8.93082815	     -9.27219273	     22.90663704	     27.35570219	     41.24246510	      0.00000000	      0.00000000
     11.31371429	     -2.60020440	     -4.74595395	      8.67626636	      0.96143240	      0.91422969	      0.54357175	     14.20242300	      7.08564256	     -9.37201730	     27.36689645	     27.36689645	     18.00582013	    -13.97630353	      0.99728834	     34.33509926	    -10.56916535	      6.79978787	     51.69743935	     51.69743935	     13.59630397	    -19.20100438	     17.55473385	    -10.14159983	      3.53306744	      1.47914090	     36.94800770	    -17.55581303	     -8.89114421	     46.35664894	     45.83726460	      0.00000000	      0.00000000	    -11.07747381	     -9.02817837	     23.24802193	     27.77076254	     41.23325869	      0.00000000	      0.00000000
     11.33714286	     -2.97494283	     -4.51055020	      9.50713265	      0.95834610	      0.91604281	      0.54241280	     13.79165196	      6.59989233	    -10.37966727	     26.13949061	     26.13949061	     17.71066986	    -13.15621555	      0.71057247	     34.19032023	     -9.56461534	      6.96926558	     46.37403263	     46.37403263	     11.24219811	    -18.88680482	     14.09051352	     -9.98940563	      3.26549888	      1.47216427	     39.72757634	    -18.04208948	     -8.77926423	     49.47837843	     45.72831011	      0.00000000	      0.00000000	    -13.45669995	     -9.19968478	     23.90939172	     29.66563186	     41.22796709	      0.00000000	      0.00000000
     11.36057143	     -3.22930074	     -4.31459202	     10.30195310	      0.95531774	      0.91780514	      0.54103040	     13.25170711	      6.21029662	    -11.26728878	     24.91195319	     24.91195319	     17.36008189	    -12.49449385	      0.43261446	     33.77493632	     -8.65508346	      7.21746545	     41.08769828	     41.08769828	      8.85081355	    -18.21854570	     11.33449646	    -10.01615113	      3.11058537	      1.63456071	     42.70060963	    -18.77783042	     -8.32654779	     52.07343425	     45.62914849	      0.00000000	      0.00000000	    -15.34056224	     -9.24665978	     24.85897402	     30.92739966	     41.20793225	      0.00000000	      0.00000000
     11.38400000	     -3.56377332	     -4.04932571	     11.01235595	      0.95242104	      0.91923681	      0.53955068	     12.89410163	      5.79578446	    -11.83896146	     23.92037148	     23.92037148	     17.10890914	    -12.31979374	      0.55259976	     33.40671616	     -7.79664557	      7.27366783	     36.22644629	     36.22644629	      7.60006534	    -16.52877036	     11.50263442	     -9.87143479	      2.82023698	      2.07651772	     45.60744547	    -19.54801533	     -8.32322422	     53.58523322	     45.59153187	      0.00000000	      0.00000000	    -16.64888837	     -9.05858288	     25.20110984	     31.07426244	     41.18034173	      0.00000000	      0.00000000
     11.40742857	     -3.78972628	     -4.05449513	     11.75170640	      0.94974124	      0.92020849	      0.53796496	     12.40114506	      5.59897054	    -12.88651759	     22.84207553	     22.84207553	     16.81631719	    -11.41420539	     -0.06969463	     32.99015614	     -7.39387713	      7.15725653	     31.70732671	     31.70732671	      5.52002632	    -14.24952372	      8.77774552	     -9.87826407	      2.87765809	      1.98331879	     48.38093074	    -19.98063466	     -7.41563418	     56.71513250	     45.46031684	      0.00000000	      0.00000000	    -18.39556385	     -9.14316293	     26.17426767	     32.74836029	     41.17295544	      0.00000000	      0.00000000
     11.43085714	     -3.99929821	     -3.94345449	     12.35871661	      0.94731510	      0.92094463	      0.53634210	     12.01033021	      5.38579464	    -13.35318110	     22.04519984	     22.04519984	     16.43273265	    -11.41391229	     -0.77993271	     32.47633128	     -6.96840537	      6.80022651	     27.67755604	     27.67755604	      3.82782275	    -11.84373058	      6.94523539	     -9.83408061	      2.74384826	      2.56414628	     50.79666384	    -21.09830153	     -6.66320368	     58.99625595	     45.37684512	      0.00000000	      0.00000000	    -19.44376150	     -9.40474086	     27.88168331	     33.91668846	     41.27911501	      0.00000000	      0.00000000
     11.45428571	     -4.16247306	     -3.95033091	     12.92422733	      0.94512138	      0.92155396	      0.53473681	     11.54511933	      5.30846304	    -13.92206264	     21.20365644	     21.20365644	     16.33525837	    -11.00678009	     -0.77557911	     32.12332913	     -6.72332306	      6.36285434	     24.55193562	     24.55193562	      3.28336700	     -8.97640521	      7.35947018	     -9.87065524	      2.71400460	      2.58566189	     53.48148364	    -21.08259038	     -6.60648381	     60.60128103	     45.33530021	      0.00000000	      0.00000000	    -20.37152516	     -9.12642108	     28.28148593	     33.81376792	     41.28119900	      0.00000000	      0.00000000
